<svg width="27" height="25" viewBox="0 0 27 25" fill="none" xmlns="http://www.w3.org/2000/svg">
<path d="M9.976 0.767996L5.752 18.528L4.984 14.4C6.52 14.4 7.768 14.88 8.728 15.84C9.688 16.736 10.168 17.952 10.168 19.488C10.168 21.024 9.688 22.272 8.728 23.232C7.768 24.192 6.584 24.672 5.176 24.672C3.64 24.672 2.392 24.192 1.432 23.232C0.536 22.208 0.0880003 20.96 0.0880003 19.488C0.0880003 18.912 0.12 18.4 0.184 17.952C0.248 17.504 0.376 16.96 0.568 16.32C0.76 15.68 1.016 14.912 1.336 14.016L5.368 0.767996H9.976ZM26.296 0.767996L22.072 18.528L21.304 14.4C22.84 14.4 24.088 14.88 25.048 15.84C26.008 16.736 26.488 17.952 26.488 19.488C26.488 21.024 26.008 22.272 25.048 23.232C24.088 24.192 22.904 24.672 21.496 24.672C19.96 24.672 18.712 24.192 17.752 23.232C16.856 22.208 16.408 20.96 16.408 19.488C16.408 18.912 16.44 18.4 16.504 17.952C16.568 17.504 16.696 16.96 16.888 16.32C17.08 15.68 17.336 14.912 17.656 14.016L21.688 0.767996H26.296Z" fill="#50545A"/>
</svg>
